<svg version="1.1" id="Layer_1" xmlns="http://www.w3.org/2000/svg" xmlns:xlink="http://www.w3.org/1999/xlink" x="0px" y="0px"
	 width="100%" viewBox="0 0 123 123" enable-background="new 0 0 123 123" xml:space="preserve">
<path fill="#1EBF74" opacity="1.000000" stroke="none" 
	d="
M70.000000,124.000000 
	C64.977905,124.000000 59.955814,124.000000 54.277260,123.657822 
	C35.308037,120.280716 20.466972,111.443352 10.957537,95.443398 
	C6.512619,87.964668 4.251110,79.188255 1.000000,71.000000 
	C1.000000,65.645073 1.000000,60.290142 1.342203,54.278046 
	C4.715461,35.304443 13.556232,20.464783 29.558815,10.956024 
	C37.037354,6.512267 45.812515,4.250647 54.000000,0.999999 
	C59.354931,1.000000 64.709862,1.000000 70.694771,1.360464 
	C89.115509,4.555174 103.735275,12.961528 113.190018,28.313038 
	C118.004150,36.129650 120.471718,45.391464 124.000000,54.000000 
	C124.000000,59.354931 124.000000,64.709862 123.657784,70.721985 
	C120.217133,90.081306 111.061134,105.092468 94.611824,114.574249 
	C87.094543,118.907410 78.245201,120.929665 70.000000,124.000000 
M55.911282,50.947910 
	C55.670586,49.670876 54.960621,47.415718 55.263000,47.270645 
	C57.816486,46.045578 60.554920,45.206009 63.449234,44.175304 
	C63.449234,41.439919 63.449234,38.351875 63.449234,35.326702 
	C50.429165,32.318016 43.218395,37.221458 40.406399,50.879459 
	C39.016838,51.009247 37.582523,51.143211 35.926292,51.297905 
	C35.926292,54.504513 35.926292,57.421246 35.926292,60.624203 
	C37.626453,60.839958 39.181942,61.037354 41.041405,61.273327 
	C41.041405,65.836411 40.804840,70.154800 41.109932,74.434586 
	C41.397797,78.472748 40.834087,81.594940 36.237701,81.979134 
	C36.237701,85.142952 36.237701,87.921608 36.237701,90.861755 
	C44.357231,90.861755 52.229252,90.861755 60.216442,90.861755 
	C60.216442,87.624687 60.216442,84.721397 60.216442,82.930962 
	C57.900970,81.207878 55.093487,80.147430 54.986984,78.863014 
	C54.501091,73.003105 54.773731,67.080299 54.773731,61.201199 
	C60.464222,61.201199 65.390633,61.201199 70.574799,61.201199 
	C70.574799,67.875977 70.574799,74.293022 70.574799,80.793518 
	C68.945419,81.212357 67.432518,81.601257 65.945419,81.983521 
	C65.945419,85.082741 65.945419,87.854652 65.945419,90.906052 
	C73.739227,90.906052 81.297318,90.906052 89.093872,90.906052 
	C89.093872,87.740707 89.093872,84.837746 89.093872,81.766144 
	C87.445572,81.448311 86.032845,81.175903 84.163078,80.815369 
	C84.163078,70.970100 84.163078,61.225040 84.163078,50.994503 
	C74.731956,50.994503 65.787964,50.994503 55.911282,50.947910 
M79.723824,46.397530 
	C83.003319,44.903629 84.911720,42.163578 83.649200,38.886047 
	C82.858086,36.832310 80.280357,34.425766 78.260010,34.179253 
	C76.238251,33.932560 73.112488,35.629986 71.879143,37.436722 
	C68.889114,41.816814 72.749794,46.579338 79.723824,46.397530 
z"/>
<path fill="#FDFEFD" opacity="1.000000" stroke="none" 
	d="
M70.468658,124.000000 
	C78.245201,120.929665 87.094543,118.907410 94.611824,114.574249 
	C111.061134,105.092468 120.217133,90.081306 123.657784,71.189590 
	C124.000000,88.594124 124.000000,106.188240 124.000000,124.000000 
	C106.313034,124.000000 88.625175,124.000000 70.468658,124.000000 
z"/>
<path fill="#FDFEFD" opacity="1.000000" stroke="none" 
	d="
M53.531342,0.999999 
	C45.812515,4.250647 37.037354,6.512267 29.558815,10.956024 
	C13.556232,20.464783 4.715461,35.304443 1.342203,53.810440 
	C1.000000,36.406563 1.000000,18.813124 1.000000,1.000000 
	C18.353609,1.000000 35.708145,1.000000 53.531342,0.999999 
z"/>
<path fill="#FDFEFE" opacity="1.000000" stroke="none" 
	d="
M124.000000,53.531342 
	C120.471718,45.391464 118.004150,36.129650 113.190018,28.313038 
	C103.735275,12.961528 89.115509,4.555174 71.162376,1.360464 
	C88.593437,1.000000 106.186867,1.000000 124.000000,1.000000 
	C124.000000,18.353609 124.000000,35.708145 124.000000,53.531342 
z"/>
<path fill="#FDFEFD" opacity="1.000000" stroke="none" 
	d="
M1.000000,71.468658 
	C4.251110,79.188255 6.512619,87.964668 10.957537,95.443398 
	C20.466972,111.443352 35.308037,120.280716 53.810402,123.657822 
	C36.406567,124.000000 18.813131,124.000000 1.000000,124.000000 
	C1.000000,106.646393 1.000000,89.291855 1.000000,71.468658 
z"/>
<path fill="#FBFDFC" opacity="1.000000" stroke="none" 
	d="
M56.377632,50.971207 
	C65.787964,50.994503 74.731956,50.994503 84.163078,50.994503 
	C84.163078,61.225040 84.163078,70.970100 84.163078,80.815369 
	C86.032845,81.175903 87.445572,81.448311 89.093872,81.766144 
	C89.093872,84.837746 89.093872,87.740707 89.093872,90.906052 
	C81.297318,90.906052 73.739227,90.906052 65.945419,90.906052 
	C65.945419,87.854652 65.945419,85.082741 65.945419,81.983521 
	C67.432518,81.601257 68.945419,81.212357 70.574799,80.793518 
	C70.574799,74.293022 70.574799,67.875977 70.574799,61.201199 
	C65.390633,61.201199 60.464222,61.201199 54.773731,61.201199 
	C54.773731,67.080299 54.501091,73.003105 54.986984,78.863014 
	C55.093487,80.147430 57.900970,81.207878 60.216442,82.930962 
	C60.216442,84.721397 60.216442,87.624687 60.216442,90.861755 
	C52.229252,90.861755 44.357231,90.861755 36.237701,90.861755 
	C36.237701,87.921608 36.237701,85.142952 36.237701,81.979134 
	C40.834087,81.594940 41.397797,78.472748 41.109932,74.434586 
	C40.804840,70.154800 41.041405,65.836411 41.041405,61.273327 
	C39.181942,61.037354 37.626453,60.839958 35.926292,60.624203 
	C35.926292,57.421246 35.926292,54.504513 35.926292,51.297905 
	C37.582523,51.143211 39.016838,51.009247 40.406399,50.879459 
	C43.218395,37.221458 50.429165,32.318016 63.449234,35.326702 
	C63.449234,38.351875 63.449234,41.439919 63.449234,44.175304 
	C60.554920,45.206009 57.816486,46.045578 55.263000,47.270645 
	C54.960621,47.415718 55.670586,49.670876 56.377632,50.971207 
z"/>
<path fill="#F7FCFA" opacity="1.000000" stroke="none" 
	d="
M79.367386,46.547554 
	C72.749794,46.579338 68.889114,41.816814 71.879143,37.436722 
	C73.112488,35.629986 76.238251,33.932560 78.260010,34.179253 
	C80.280357,34.425766 82.858086,36.832310 83.649200,38.886047 
	C84.911720,42.163578 83.003319,44.903629 79.367386,46.547554 
z"/>
</svg>