<svg version="1.1" id="Layer_1" xmlns="http://www.w3.org/2000/svg" xmlns:xlink="http://www.w3.org/1999/xlink" x="0px" y="0px"
	 width="100%" viewBox="0 0 500 500" enable-background="new 0 0 500 500" xml:space="preserve">
<path fill="#000000" opacity="1.000000" stroke="none" 
	d="
M491.039001,501.000000 
	C327.366760,501.000000 164.201263,501.000000 1.017893,501.000000 
	C1.017893,334.346466 1.017893,167.692947 1.017893,1.019711 
	C167.652313,1.019711 334.304626,1.019711 500.978455,1.019711 
	C500.978455,167.651108 500.978455,334.302216 500.978455,501.000000 
	C497.848663,501.000000 494.697235,501.000000 491.039001,501.000000 
M354.582642,295.925659 
	C354.659607,295.827118 354.736572,295.728577 354.813568,295.630066 
	C354.726410,295.686981 354.639221,295.743927 354.582642,295.925659 
M353.442444,298.646210 
	C353.581757,298.807892 353.721069,298.969543 353.860382,299.131226 
	C353.949341,299.043945 354.038300,298.956696 354.127258,298.869446 
	C353.968872,298.726532 353.810486,298.583618 353.442444,298.646210 
z"/>
<path fill="#0F0F0F" opacity="1.000000" stroke="none" 
	d="
M354.567352,295.863251 
	C354.639221,295.743927 354.726410,295.686981 354.813538,295.630066 
	C354.736572,295.728577 354.659607,295.827118 354.567352,295.863251 
z"/>
<path fill="#0F0F0F" opacity="1.000000" stroke="none" 
	d="
M353.547272,298.543457 
	C353.810486,298.583618 353.968872,298.726532 354.127258,298.869446 
	C354.038300,298.956696 353.949341,299.043945 353.860382,299.131226 
	C353.721069,298.969543 353.581757,298.807892 353.547272,298.543457 
z"/>
</svg>