<svg version="1.1" id="Layer_1" xmlns="http://www.w3.org/2000/svg" xmlns:xlink="http://www.w3.org/1999/xlink" x="0px" y="0px"
	 width="100%" viewBox="0 0 496 496" enable-background="new 0 0 496 496" xml:space="preserve">
<path fill="#000000" opacity="1.000000" stroke="none" 
	d="
M205.598022,304.592682 
	C220.183960,290.931915 237.965759,285.225891 256.682587,281.694733 
	C269.317352,279.311035 282.096191,278.245239 294.940613,278.742706 
	C299.207275,278.907928 300.835236,277.217316 301.605896,273.312897 
	C304.596985,258.158905 307.180542,242.944199 308.370850,226.882339 
	C303.623260,231.849915 299.070160,237.022903 294.086548,241.741226 
	C284.463562,250.851929 274.006287,258.800598 261.056549,262.690765 
	C243.040405,268.102936 228.051056,260.451355 221.661880,242.738159 
	C216.786240,229.221008 217.149292,215.271194 218.179199,201.273254 
	C218.410294,198.132477 218.944977,195.008942 219.442917,191.893936 
	C220.382385,186.016830 219.861526,185.307373 214.067947,184.335129 
	C199.207077,181.841248 184.832291,177.827972 171.543060,170.496964 
	C165.220306,167.009018 159.449738,162.829041 154.896271,157.133133 
	C144.535324,144.172653 144.361191,128.900238 154.732315,115.877075 
	C165.004044,102.978691 179.040329,96.580887 194.833237,93.444229 
	C195.634583,93.285065 196.507355,93.178299 197.295654,93.324081 
	C199.000305,93.639336 200.755203,94.238205 200.339645,96.459488 
	C199.978119,98.392021 198.317261,98.307343 196.744583,98.196083 
	C178.399292,96.898277 154.993790,114.832718 151.938828,132.708679 
	C150.520538,141.007889 153.665176,148.076279 158.877380,154.316971 
	C166.499817,163.443466 176.740646,168.575455 187.559021,172.747269 
	C197.069687,176.414780 206.988251,178.538498 216.967331,180.463501 
	C220.554367,181.155441 221.987717,179.821472 222.896347,176.407761 
	C227.761154,158.130905 234.266800,140.511307 245.352737,124.960670 
	C255.831436,110.261833 268.530090,98.328011 286.536469,93.420967 
	C297.263000,90.497803 307.970734,90.741699 318.481720,94.326401 
	C333.761902,99.537605 341.149200,112.812248 337.770630,128.649521 
	C334.233643,145.229446 324.087494,157.334244 310.932648,167.099442 
	C290.723480,182.101227 267.557190,187.578400 242.747147,187.229462 
	C235.494095,187.127457 235.659119,187.125763 234.304047,194.240173 
	C232.275970,204.887878 231.374176,215.656723 230.519714,226.429108 
	C230.070526,232.092163 230.840149,237.768784 231.982574,243.278885 
	C235.115845,258.390869 242.721298,262.967590 257.736450,259.137360 
	C267.132996,256.740417 275.077057,251.570694 282.666626,245.783173 
	C293.064575,237.854141 301.925568,228.372742 310.233307,218.340546 
	C311.720886,216.544189 313.088257,214.638885 314.673615,212.935059 
	C316.948547,210.490051 319.615967,208.737396 323.059875,210.528427 
	C326.269806,212.197754 326.345093,215.065796 325.873230,218.294037 
	C323.178986,236.726089 319.933838,255.057480 315.798492,273.218506 
	C314.923798,277.059967 316.273041,278.130463 319.753387,277.832336 
	C345.130615,275.658600 368.467163,268.725189 386.462708,249.292038 
	C387.792023,247.856567 389.047516,246.062149 391.532990,247.452835 
	C392.422852,249.868256 390.500885,251.124649 389.296783,252.528976 
	C376.579224,267.361603 359.634460,274.671082 341.219910,279.231659 
	C334.105164,280.993713 326.827545,282.458862 319.511871,282.149750 
	C314.235229,281.926819 313.147675,284.634430 312.320526,288.765747 
	C308.930511,305.697601 303.358368,321.850128 294.360291,336.679657 
	C282.354156,356.466644 266.590820,371.584747 243.189346,376.789093 
	C223.116333,381.253204 203.681671,372.968903 195.780823,356.835602 
	C187.428574,339.780548 191.072403,319.963470 205.598022,304.592682 
M287.071014,322.586548 
	C292.232788,311.162842 295.589752,299.190521 298.231476,286.963196 
	C299.064972,283.105347 297.752808,282.123322 294.277283,282.374420 
	C289.302551,282.733856 284.316986,282.941589 279.341248,283.288818 
	C261.999878,284.499023 245.026810,287.456177 228.915726,294.280823 
	C204.895676,304.455688 194.450943,320.205994 196.261383,343.379059 
	C197.370880,357.580292 208.185684,369.313477 222.141479,371.849243 
	C232.718338,373.771057 242.309174,371.082123 251.297882,365.916321 
	C268.351959,356.115356 278.817657,340.714569 287.071014,322.586548 
M333.610840,129.007355 
	C336.163269,117.360519 333.724335,107.361320 323.233765,100.683113 
	C314.738556,95.275139 305.190918,93.995033 295.389099,95.994080 
	C282.236481,98.676521 272.835754,107.093933 265.013458,117.334084 
	C250.803680,135.936050 243.245422,157.568573 237.357574,179.893326 
	C237.206680,180.465469 237.466675,181.145966 237.517639,181.615524 
	C239.080902,182.645172 240.610397,182.579147 242.085510,182.618073 
	C256.336182,182.994095 270.411316,181.605576 283.818420,176.625290 
	C306.884705,168.057007 325.604614,154.632416 333.610840,129.007355 
z"/>
<path fill="#000000" opacity="1.000000" stroke="none" 
	d="
M355.230988,295.843811 
	C354.621857,298.674042 353.212250,300.155060 350.608643,299.422577 
	C348.784241,298.909302 348.173157,297.202972 348.323700,295.447449 
	C348.477814,293.649719 349.548248,292.284210 351.371490,291.985840 
	C353.931702,291.566833 354.879517,293.242279 355.230988,295.843811 
z"/>
</svg>