<svg version="1.1" id="Layer_1" xmlns="http://www.w3.org/2000/svg" xmlns:xlink="http://www.w3.org/1999/xlink" x="0px" y="0px"
	 width="100%" viewBox="0 0 666 374" enable-background="new 0 0 666 374" xml:space="preserve">
<path fill="#000000" opacity="1.000000" stroke="none" 
	d="
M390.000000,375.000000 
	C260.362244,375.000000 130.724503,375.000000 1.043381,375.000000 
	C1.043381,250.390076 1.043381,125.780128 1.043381,1.085090 
	C222.893723,1.085090 444.787506,1.085090 666.840637,1.085090 
	C666.840637,125.666519 666.840637,250.333237 666.840637,375.000000 
	C622.578918,375.000000 578.255493,375.000000 533.130920,374.728455 
	C532.965149,373.985168 533.537720,373.366455 534.245483,373.063812 
	C543.773071,368.989746 553.319458,364.959717 563.159546,360.792419 
	C546.495605,322.207672 529.973083,283.950317 513.450500,245.692963 
	C513.921692,245.425095 514.392822,245.157227 514.864014,244.889359 
	C553.557434,260.177124 592.250916,275.464905 631.067627,290.801361 
	C637.742981,273.848694 644.278198,257.252075 650.866516,240.520462 
	C611.961792,225.123322 572.989075,209.699234 534.016357,194.275162 
	C533.916443,193.839172 533.816589,193.403183 533.716736,192.967194 
	C572.174866,176.262161 610.632935,159.557129 649.278870,142.770508 
	C648.445374,140.627899 647.796387,138.824860 647.050293,137.062958 
	C641.356323,123.616898 635.592468,110.200111 629.975891,96.721893 
	C628.723633,93.716637 626.697388,93.308060 624.142456,94.390999 
	C614.345032,98.543785 604.571594,102.754532 594.826477,107.028862 
	C573.043884,116.583031 551.296509,126.217690 529.505493,135.752686 
	C523.871704,138.217834 518.129761,140.435730 511.391571,143.195602 
	C527.163879,103.436142 542.459900,64.877434 558.000610,25.701887 
	C540.857056,18.889004 523.911316,12.154749 506.872070,5.383328 
	C491.311188,44.537582 475.999023,83.065994 460.228577,122.747543 
	C443.330322,83.784752 426.942841,45.999660 410.214996,7.429819 
	C392.638641,12.507024 376.797272,21.656120 359.729279,28.303726 
	C376.482849,67.008926 393.067108,105.323006 409.651398,143.637085 
	C409.405579,144.022568 409.159760,144.408051 408.913940,144.793533 
	C369.921295,129.347656 330.928650,113.901787 291.643982,98.340256 
	C288.483948,106.579460 285.677734,114.175575 282.659943,121.686676 
	C279.567566,129.383438 276.176727,136.960846 273.126373,144.673492 
	C272.404724,146.498108 271.848724,148.812653 274.677002,149.921463 
	C282.798828,153.105530 290.901642,156.337967 299.010742,159.554459 
	C315.107666,165.939362 331.189148,172.363525 347.304626,178.701294 
	C361.414032,184.250107 375.561249,189.702805 390.517151,195.518951 
	C371.083038,203.940948 352.741608,211.886261 334.402985,219.837936 
	C324.391418,224.178970 314.401520,228.570450 304.370483,232.865906 
	C295.401245,236.706619 286.365692,240.393021 277.413605,244.272614 
	C275.409851,245.140991 273.045105,245.825089 274.570557,249.293106 
	C280.847504,263.563660 286.870850,277.945831 292.978760,292.290649 
	C294.034180,294.769318 295.377167,295.663361 298.241547,294.421783 
	C315.654205,286.874207 333.155029,279.530334 350.607452,272.074066 
	C365.679749,265.634613 380.728912,259.140961 395.783783,252.660812 
	C400.709259,250.540726 405.620483,248.387650 411.409790,245.870743 
	C395.597198,285.742065 380.204224,324.555267 364.750122,363.522675 
	C372.386108,366.465668 379.670959,369.192017 386.870850,372.126709 
	C388.100067,372.627747 388.966156,374.019653 390.000000,375.000000 
z"/>
<path fill="#F07324" opacity="1.000000" stroke="none" 
	d="
M390.468628,375.000000 
	C388.966156,374.019653 388.100067,372.627747 386.870850,372.126709 
	C379.670959,369.192017 372.386108,366.465668 364.750122,363.522675 
	C380.204224,324.555267 395.597198,285.742065 411.409790,245.870743 
	C405.620483,248.387650 400.709259,250.540726 395.783783,252.660812 
	C380.728912,259.140961 365.679749,265.634613 350.607452,272.074066 
	C333.155029,279.530334 315.654205,286.874207 298.241547,294.421783 
	C295.377167,295.663361 294.034180,294.769318 292.978760,292.290649 
	C286.870850,277.945831 280.847504,263.563660 274.570557,249.293106 
	C273.045105,245.825089 275.409851,245.140991 277.413605,244.272614 
	C286.365692,240.393021 295.401245,236.706619 304.370483,232.865906 
	C314.401520,228.570450 324.391418,224.178970 334.402985,219.837936 
	C352.741608,211.886261 371.083038,203.940948 390.517151,195.518951 
	C375.561249,189.702805 361.414032,184.250107 347.304626,178.701294 
	C331.189148,172.363525 315.107666,165.939362 299.010742,159.554459 
	C290.901642,156.337967 282.798828,153.105530 274.677002,149.921463 
	C271.848724,148.812653 272.404724,146.498108 273.126373,144.673492 
	C276.176727,136.960846 279.567566,129.383438 282.659943,121.686676 
	C285.677734,114.175575 288.483948,106.579460 291.643982,98.340256 
	C330.928650,113.901787 369.921295,129.347656 408.913940,144.793533 
	C409.159760,144.408051 409.405579,144.022568 409.651398,143.637085 
	C393.067108,105.323006 376.482849,67.008926 359.729279,28.303726 
	C376.797272,21.656120 392.638641,12.507024 410.214996,7.429819 
	C426.942841,45.999660 443.330322,83.784752 460.228577,122.747543 
	C475.999023,83.065994 491.311188,44.537582 506.872070,5.383328 
	C523.911316,12.154749 540.857056,18.889004 558.000610,25.701887 
	C542.459900,64.877434 527.163879,103.436142 511.391571,143.195602 
	C518.129761,140.435730 523.871704,138.217834 529.505493,135.752686 
	C551.296509,126.217690 573.043884,116.583031 594.826477,107.028862 
	C604.571594,102.754532 614.345032,98.543785 624.142456,94.390999 
	C626.697388,93.308060 628.723633,93.716637 629.975891,96.721893 
	C635.592468,110.200111 641.356323,123.616898 647.050293,137.062958 
	C647.796387,138.824860 648.445374,140.627899 649.278870,142.770508 
	C610.632935,159.557129 572.174866,176.262161 533.716736,192.967194 
	C533.816589,193.403183 533.916443,193.839172 534.016357,194.275162 
	C572.989075,209.699234 611.961792,225.123322 650.866516,240.520462 
	C644.278198,257.252075 637.742981,273.848694 631.067627,290.801361 
	C592.250916,275.464905 553.557434,260.177124 514.864014,244.889359 
	C514.392822,245.157227 513.921692,245.425095 513.450500,245.692963 
	C529.973083,283.950317 546.495605,322.207672 563.159546,360.792419 
	C553.319458,364.959717 543.773071,368.989746 534.245483,373.063812 
	C533.537720,373.366455 532.965149,373.985168 532.664856,374.728455 
	C525.312439,375.000000 517.624817,375.000000 509.795593,374.715881 
	C504.043304,361.462769 498.390167,348.511993 492.834290,335.519623 
	C487.482208,323.003937 482.357880,310.389587 476.895813,297.922699 
	C472.293457,287.418091 467.350098,277.062897 462.528625,266.578522 
	C461.960510,268.316895 461.556152,269.882843 460.946350,271.364227 
	C457.992004,278.540924 454.887299,285.656921 452.014618,292.865662 
	C447.588715,303.972137 443.305939,315.135681 438.967133,326.276825 
	C432.642548,342.517029 426.322174,358.758850 420.000000,375.000000 
	C410.312439,375.000000 400.624878,375.000000 390.468628,375.000000 
z"/>
<path fill="#000000" opacity="1.000000" stroke="none" 
	d="
M420.468658,375.000000 
	C426.322174,358.758850 432.642548,342.517029 438.967133,326.276825 
	C443.305939,315.135681 447.588715,303.972137 452.014618,292.865662 
	C454.887299,285.656921 457.992004,278.540924 460.946350,271.364227 
	C461.556152,269.882843 461.960510,268.316895 462.528625,266.578522 
	C467.350098,277.062897 472.293457,287.418091 476.895813,297.922699 
	C482.357880,310.389587 487.482208,323.003937 492.834290,335.519623 
	C498.390167,348.511993 504.043304,361.462769 509.326965,374.715881 
	C479.645782,375.000000 450.291534,375.000000 420.468658,375.000000 
z"/>
</svg>