<svg version="1.1" id="Layer_1" xmlns="http://www.w3.org/2000/svg" xmlns:xlink="http://www.w3.org/1999/xlink" x="0px" y="0px"
	 width="100%" viewBox="0 0 1366 768" enable-background="new 0 0 1366 768" xml:space="preserve">
<path fill="#FFFFFF" opacity="1.000000" stroke="none" 
	d="
M809.000000,769.000000 
	C539.694702,769.000000 270.389465,769.000000 1.042092,769.000000 
	C1.042092,513.054749 1.042092,257.109467 1.042092,1.082101 
	C456.231140,1.082101 911.462341,1.082101 1366.846680,1.082101 
	C1366.846680,256.999939 1366.846680,512.999939 1366.846680,769.000000 
	C1272.896362,769.000000 1178.906128,769.000000 1084.580322,768.668945 
	C1106.913696,758.436462 1129.582642,748.535156 1152.609619,738.477478 
	C1117.881470,658.146790 1083.395386,578.375732 1048.293091,497.179626 
	C1130.688599,529.824890 1211.518799,561.850037 1292.612671,593.979614 
	C1306.149414,559.775085 1319.440918,526.190491 1332.876587,492.241730 
	C1251.390015,459.939117 1170.727295,427.963165 1088.759766,395.469910 
	C1098.479126,391.249084 1106.694580,387.667847 1114.920410,384.111237 
	C1184.783325,353.904816 1254.631226,323.663574 1324.552368,293.592804 
	C1328.956909,291.698669 1329.609131,289.981506 1327.674927,285.603912 
	C1316.037964,259.267548 1304.717529,232.791367 1293.281860,206.365997 
	C1291.064087,201.241333 1288.805176,196.134521 1286.438110,190.729431 
	C1206.119019,225.442123 1126.363525,259.911285 1046.607910,294.380463 
	C1046.345703,294.019470 1046.083496,293.658508 1045.821167,293.297546 
	C1077.804688,212.570023 1109.788208,131.842514 1141.927002,50.723000 
	C1107.768555,37.184639 1074.234985,23.893967 1040.218628,10.411963 
	C1008.007141,91.669334 976.008972,172.388397 943.421692,254.593658 
	C908.267334,173.320328 873.755188,93.531693 839.083740,13.374734 
	C805.233215,28.016329 772.029114,42.378345 738.606934,56.834671 
	C773.356445,137.207092 807.804016,216.880920 842.891174,298.034149 
	C760.605225,265.435394 679.758789,233.406952 598.654663,201.276398 
	C585.087219,235.524506 571.801758,269.060760 558.356445,303.000427 
	C639.821167,335.290741 720.631897,367.321838 802.699158,399.851013 
	C721.495544,434.967041 641.557312,469.535828 561.310059,504.238281 
	C575.924316,538.012207 590.243103,571.103455 604.774109,604.685059 
	C685.049805,569.981689 764.841980,535.487366 846.014221,500.396393 
	C813.434631,582.625916 781.436035,663.389099 749.337280,744.405090 
	C751.310181,745.322998 752.761597,746.087524 754.277588,746.689209 
	C764.625305,750.796265 775.018494,754.790894 785.333435,758.978271 
	C793.270386,762.200317 801.114563,765.651001 809.000000,769.000000 
z"/>
<path fill="#F07224" opacity="1.000000" stroke="none" 
	d="
M809.468628,769.000000 
	C801.114563,765.651001 793.270386,762.200317 785.333435,758.978271 
	C775.018494,754.790894 764.625305,750.796265 754.277588,746.689209 
	C752.761597,746.087524 751.310181,745.322998 749.337280,744.405090 
	C781.436035,663.389099 813.434631,582.625916 846.014221,500.396393 
	C764.841980,535.487366 685.049805,569.981689 604.774109,604.685059 
	C590.243103,571.103455 575.924316,538.012207 561.310059,504.238281 
	C641.557312,469.535828 721.495544,434.967041 802.699158,399.851013 
	C720.631897,367.321838 639.821167,335.290741 558.356445,303.000427 
	C571.801758,269.060760 585.087219,235.524506 598.654663,201.276398 
	C679.758789,233.406952 760.605225,265.435394 842.891174,298.034149 
	C807.804016,216.880920 773.356445,137.207092 738.606934,56.834671 
	C772.029114,42.378345 805.233215,28.016329 839.083740,13.374734 
	C873.755188,93.531693 908.267334,173.320328 943.421692,254.593658 
	C976.008972,172.388397 1008.007141,91.669334 1040.218628,10.411963 
	C1074.234985,23.893967 1107.768555,37.184639 1141.927002,50.723000 
	C1109.788208,131.842514 1077.804688,212.570023 1045.821167,293.297546 
	C1046.083496,293.658508 1046.345703,294.019470 1046.607910,294.380463 
	C1126.363525,259.911285 1206.119019,225.442123 1286.438110,190.729431 
	C1288.805176,196.134521 1291.064087,201.241333 1293.281860,206.365997 
	C1304.717529,232.791367 1316.037964,259.267548 1327.674927,285.603912 
	C1329.609131,289.981506 1328.956909,291.698669 1324.552368,293.592804 
	C1254.631226,323.663574 1184.783325,353.904816 1114.920410,384.111237 
	C1106.694580,387.667847 1098.479126,391.249084 1088.759766,395.469910 
	C1170.727295,427.963165 1251.390015,459.939117 1332.876587,492.241730 
	C1319.440918,526.190491 1306.149414,559.775085 1292.612671,593.979614 
	C1211.518799,561.850037 1130.688599,529.824890 1048.293091,497.179626 
	C1083.395386,578.375732 1117.881470,658.146790 1152.609619,738.477478 
	C1129.582642,748.535156 1106.913696,758.436462 1084.122314,768.668945 
	C1071.645752,769.000000 1059.291504,769.000000 1046.513306,768.626831 
	C1045.532959,766.865234 1045.008545,765.463074 1044.415527,764.090515 
	C1016.902039,700.411682 989.387451,636.733215 961.859253,573.060730 
	C957.327698,562.579346 952.734131,552.124695 947.829102,540.877808 
	C946.954651,542.896851 946.420959,544.042664 945.955688,545.215576 
	C919.452332,612.033630 892.932373,678.845154 866.486450,745.685913 
	C863.444946,753.373169 860.818787,761.224670 858.000000,769.000000 
	C841.979126,769.000000 825.958191,769.000000 809.468628,769.000000 
z"/>
<path fill="#FFFEFE" opacity="1.000000" stroke="none" 
	d="
M858.468689,769.000000 
	C860.818787,761.224670 863.444946,753.373169 866.486450,745.685913 
	C892.932373,678.845154 919.452332,612.033630 945.955688,545.215576 
	C946.420959,544.042664 946.954651,542.896851 947.829102,540.877808 
	C952.734131,552.124695 957.327698,562.579346 961.859253,573.060730 
	C989.387451,636.733215 1016.902039,700.411682 1044.415527,764.090515 
	C1045.008545,765.463074 1045.532959,766.865234 1046.044678,768.626831 
	C983.645752,769.000000 921.291565,769.000000 858.468689,769.000000 
z"/>
</svg>